<svg viewBox="0 0 1920 750" fill="none" xmlns="http://www.w3.org/2000/svg">
<g clip-path="url(#clip0_551_2)">
<circle cx="544" cy="87" r="10" fill="currentColor"/>
<circle cx="864" cy="74" r="23" fill="currentColor"/>
<circle cx="55" cy="390" r="18" fill="currentColor"/>
<circle cx="650" cy="696" r="23" fill="currentColor"/>
<circle cx="1066" cy="527" r="23" fill="currentColor"/>
<circle cx="1870.85" cy="393.993" r="30.1657" transform="rotate(82.4534 1870.85 393.993)" stroke="currentColor" stroke-width="2"/>
<circle cx="1893.48" cy="368.989" r="30.1657" transform="rotate(82.4534 1893.48 368.989)" stroke="currentColor" stroke-width="2"/>
<circle cx="564" cy="660" r="39" stroke="currentColor" stroke-width="2"/>
<circle cx="536" cy="627" r="39" stroke="currentColor" stroke-width="2"/>
<circle cx="1169.21" cy="754.786" r="77.2136" stroke="currentColor" stroke-width="2"/>
<circle cx="1247.43" cy="704.612" r="77.2136" stroke="currentColor" stroke-width="2"/>
<circle cx="1169.21" cy="645.214" r="77.2136" stroke="currentColor" stroke-width="2"/>
<circle cx="1150.59" cy="234.993" r="30.1657" transform="rotate(82.4534 1150.59 234.993)" stroke="currentColor" stroke-width="2"/>
<circle cx="1173.22" cy="209.989" r="30.1657" transform="rotate(82.4534 1173.22 209.989)" stroke="currentColor" stroke-width="2"/>
<circle cx="1920" r="50" fill="currentColor"/>
<circle cx="1920" r="75" stroke="currentColor" stroke-width="5"/>
<circle cx="1920" r="100" stroke="currentColor" stroke-width="5"/>
<circle cx="1920" r="125" stroke="currentColor" stroke-width="5"/>
<circle cy="1" r="50" fill="currentColor"/>
<circle cy="1" r="75" stroke="currentColor" stroke-width="5"/>
<circle cy="1" r="100" stroke="currentColor" stroke-width="5"/>
<circle cy="1" r="125" stroke="currentColor" stroke-width="5"/>
<circle cx="1920" cy="750" r="50" fill="currentColor"/>
<circle cx="1920" cy="750" r="75" stroke="currentColor" stroke-width="5"/>
<circle cx="1920" cy="750" r="100" stroke="currentColor" stroke-width="5"/>
<circle cx="1920" cy="750" r="125" stroke="currentColor" stroke-width="5"/>
<circle cy="751" r="50" fill="currentColor"/>
<circle cy="751" r="75" stroke="currentColor" stroke-width="5"/>
<circle cy="751" r="100" stroke="currentColor" stroke-width="5"/>
<circle cy="751" r="125" stroke="currentColor" stroke-width="5"/>
</g>

</svg>
