<svg viewBox="0 0 1920 940" fill="none" xmlns="http://www.w3.org/2000/svg">
<g clip-path="url(#clip0_416_4)">
<circle cx="99.38" cy="209.62" r="113.38" stroke="#E1E1E1" stroke-width="2"/>
<circle cx="213.76" cy="136.244" r="113.38" stroke="#E1E1E1" stroke-width="2"/>
<circle cx="99.38" cy="49.38" r="113.38" stroke="#E1E1E1" stroke-width="2"/>
<circle cx="368" cy="809" r="39" stroke="#E1E1E1" stroke-width="2"/>
<circle cx="340" cy="776" r="39" stroke="#E1E1E1" stroke-width="2"/>
<circle cx="973.214" cy="903.786" r="77.2136" stroke="#E1E1E1" stroke-width="2"/>
<circle cx="1051.43" cy="853.612" r="77.2136" stroke="#E1E1E1" stroke-width="2"/>
<circle cx="973.214" cy="794.214" r="77.2136" stroke="#E1E1E1" stroke-width="2"/>
<circle cx="954.595" cy="383.993" r="30.1657" transform="rotate(82.4534 954.595 383.993)" stroke="#E1E1E1" stroke-width="2"/>
<circle cx="977.219" cy="358.989" r="30.1657" transform="rotate(82.4534 977.219 358.989)" stroke="#E1E1E1" stroke-width="2"/>
<rect x="1077.5" y="0.5" width="723" height="939" rx="361.5" stroke="#D7D7D7"/>
<rect x="1097.5" y="0.5" width="723" height="939" rx="361.5" stroke="#D7D7D7"/>
<rect x="1117.5" y="0.5" width="723" height="939" rx="361.5" stroke="#D7D7D7"/>
<rect x="1137.5" y="0.5" width="723" height="939" rx="361.5" stroke="#D7D7D7"/>
<circle cx="1834" cy="60" r="23" fill="#F2F2F2"/>
<circle cx="1849.85" cy="880.993" r="30.1657" transform="rotate(82.4534 1849.85 880.993)" stroke="#E1E1E1" stroke-width="2"/>
<circle cx="1872.48" cy="855.989" r="30.1657" transform="rotate(82.4534 1872.48 855.989)" stroke="#E1E1E1" stroke-width="2"/>
<circle cx="101" cy="453" r="18" fill="#F2F2F2"/>
<circle cx="647" cy="106" r="10" fill="#F2F2F2"/>
<circle cx="967" cy="93" r="23" fill="#F2F2F2"/>
<circle cx="696" cy="759" r="23" fill="#F2F2F2"/>
</g>
<defs>
<clipPath id="clip0_416_4">
<rect width="1920" height="940" fill="white"/>
</clipPath>
</defs>
</svg>
